<svg id="Product_Engineering_Icon" data-name="Product Engineering Icon" xmlns="http://www.w3.org/2000/svg" width="88.791" height="88.328" viewBox="0 0 88.791 88.328">
  <path id="Path_20557" data-name="Path 20557" d="M-428.85,380.841h1.1q7.2,0,14.393,0c1.771,0,2.138.37,2.139,2.137q0,23.368,0,46.735c0,1.786-.384,2.163-2.21,2.163h-78.556c-1.865,0-2.222-.361-2.222-2.235q0-23.281,0-46.562c0-1.9.333-2.238,2.208-2.238q7.2,0,14.393,0h1.051v-2.847h-20.553V434.7c.317.011.634.031.951.031q43.445,0,86.889,0c.317,0,.634-.021.951-.031V377.994H-428.85Z" transform="translate(497.107 -367.393)" fill="#112a85"/>
  <path id="Path_20558" data-name="Path 20558" d="M-409.418,404.2c0,6.241-.017,12.483.018,18.724a2.19,2.19,0,0,1-1.226,2.159q-10.665,6.112-21.288,12.3a2.27,2.27,0,0,1-2.564.006q-10.543-6.142-21.135-12.2a2.427,2.427,0,0,1-1.414-2.4c.051-6.212.024-12.425.024-18.637v-1h-14.732v45.109h77.072V403.124h-14.756Z" transform="translate(477.602 -386.711)" fill="#112a85"/>
  <path id="Path_20559" data-name="Path 20559" d="M-369.812,354.038a1.274,1.274,0,0,0,1.06-.053c3.04-1.716,6.057-3.473,9.079-5.22,3.2-1.847,6.39-3.7,9.694-5.607-.221-.153-.307-.222-.4-.277q-9.215-5.331-18.446-10.636a1.378,1.378,0,0,0-1.146.074q-9.058,5.175-18.083,10.41c-.192.111-.371.246-.608.406.17.124.274.215.392.283Q-379.049,348.74-369.812,354.038Z" transform="translate(413.742 -332.151)" fill="#f6770d"/>
  <path id="Path_20560" data-name="Path 20560" d="M-394.806,413.7c2.932,1.668,5.848,3.365,8.77,5.052l10.012,5.781v-1.119c0-6.786-.011-13.572.016-20.357a1.411,1.411,0,0,0-.817-1.424q-8.9-5.087-17.76-10.23c-.241-.139-.493-.26-.805-.424-.027.3-.06.493-.06.688q0,10.482-.014,20.964A1.081,1.081,0,0,0-394.806,413.7Z" transform="translate(418.97 -377.375)" fill="#f6770d"/>
  <path id="Path_20561" data-name="Path 20561" d="M-298.962,402.823q.023,10.4.012,20.8c0,.222.023.444.044.811.335-.175.541-.273.737-.386,5.971-3.443,11.935-6.9,17.92-10.317a1.34,1.34,0,0,0,.753-1.371c-.021-6.817-.012-13.634-.015-20.451,0-.3-.026-.594-.044-.983-.279.142-.433.211-.578.3q-9.107,5.254-18.219,10.5A1.09,1.09,0,0,0-298.962,402.823Z" transform="translate(344.784 -377.333)" fill="#f6770d"/>
  <path id="Path_20562" data-name="Path 20562" d="M-350.93,636.177h-26.745c-.619,2.047-1.068,4.025-1.82,5.88-.759,1.874-1.82,3.625-2.738,5.411h35.855A25.432,25.432,0,0,1-350.93,636.177Z" transform="translate(408.798 -565.869)" fill="#112a85"/>
  <path id="Path_20563" data-name="Path 20563" d="M-369.713,698.02a8.775,8.775,0,0,0-.952-.032q-24.451,0-48.9,0a6.861,6.861,0,0,0-1.124.054,1.626,1.626,0,0,0-1.442,1.415,16.375,16.375,0,0,0-.022,2.255h54.093c0-.729.028-1.361-.007-1.99A1.76,1.76,0,0,0-369.713,698.02Z" transform="translate(439.511 -613.386)" fill="#112a85"/>
</svg>
