<?xml version="1.0" encoding="utf-8"?>
<!-- Generator: Adobe Illustrator 16.0.0, SVG Export Plug-In . SVG Version: 6.00 Build 0)  -->
<!DOCTYPE svg PUBLIC "-//W3C//DTD SVG 1.1//EN" "http://www.w3.org/Graphics/SVG/1.1/DTD/svg11.dtd">
<svg version="1.1" id="Layer_1" xmlns="http://www.w3.org/2000/svg" xmlns:xlink="http://www.w3.org/1999/xlink" x="0px" y="0px"
	 width="276px" height="74px" viewBox="0 0 276 74" enable-background="new 0 0 276 74" xml:space="preserve">
<g>
	<g>
		<path fill="#FFFFFF" d="M27.098,38.177c-0.684,0-1.247-0.229-1.69-0.69l-7.713-7.918c-0.138-0.137-0.243-0.269-0.319-0.397
			c-0.077-0.128-0.114-0.312-0.114-0.55v-0.794c0-0.444,0.221-0.666,0.666-0.666h3.511c0.818,0,1.431-0.155,1.832-0.462
			c0.399-0.307,0.603-0.734,0.603-1.281c0-1.144-0.813-1.717-2.435-1.717h-5.715v13.785c0,0.463-0.229,0.691-0.69,0.691h-8.79
			c-0.46,0-0.69-0.229-0.69-0.691V21.368c0-0.444,0.23-0.667,0.69-0.667h22.396c0.77,0,1.484,0.107,2.151,0.32
			c0.666,0.214,1.242,0.517,1.729,0.91c0.487,0.393,0.868,0.863,1.143,1.408c0.271,0.548,0.408,1.154,0.408,1.82
			c0,0.717-0.132,1.363-0.396,1.935c-0.265,0.572-0.624,1.063-1.076,1.473c-0.452,0.41-0.981,0.743-1.589,1
			c-0.605,0.256-1.252,0.436-1.935,0.538l7.071,7.252c0.119,0.103,0.18,0.238,0.18,0.408c0,0.104-0.038,0.196-0.114,0.282
			c-0.077,0.087-0.192,0.128-0.346,0.128L27.098,38.177L27.098,38.177z"/>
		<path fill="#FFFFFF" d="M44.599,38.177c-1.212,0-2.331-0.217-3.354-0.653c-1.024-0.436-1.914-1.041-2.666-1.817
			c-0.751-0.777-1.336-1.699-1.755-2.768c-0.419-1.067-0.629-2.232-0.629-3.498c0-1.247,0.201-2.404,0.604-3.472
			c0.401-1.067,0.971-1.994,1.704-2.78s1.618-1.397,2.652-1.833c1.032-0.436,2.182-0.653,3.444-0.653h17.912
			c0.461,0,0.691,0.222,0.691,0.667v1.64c0,0.461-0.23,0.692-0.691,0.692H50.596c-0.563,0-1.038,0.06-1.423,0.179
			c-0.385,0.12-0.696,0.333-0.936,0.641c-0.24,0.308-0.41,0.717-0.514,1.229s-0.152,1.162-0.152,1.948v2.792
			c0,0.871,0.059,1.604,0.179,2.204c0.119,0.598,0.305,1.076,0.553,1.435c0.247,0.359,0.56,0.62,0.936,0.782
			s0.828,0.243,1.357,0.243h11.99c0.462,0,0.691,0.23,0.691,0.692v1.64c0,0.462-0.229,0.69-0.691,0.69H44.599L44.599,38.177z
			 M50.082,30.157c-0.461,0-0.69-0.223-0.69-0.666v-1.666c0-0.444,0.229-0.666,0.69-0.666H62.33c0.443,0,0.667,0.153,0.667,0.461
			v2.076c0,0.307-0.224,0.461-0.667,0.461H50.082z"/>
		<path fill="#FFFFFF" d="M79.602,23.699c-1.128,0-1.914,0.294-2.356,0.884c-0.444,0.59-0.667,1.55-0.667,2.883v10.019
			c0,0.463-0.229,0.691-0.69,0.691h-9.813c-0.444,0-0.666-0.229-0.666-0.691v-9.558c0-1.059,0.152-2.028,0.461-2.909
			c0.309-0.879,0.771-1.639,1.384-2.28c0.615-0.641,1.393-1.141,2.332-1.499c0.938-0.359,2.051-0.538,3.331-0.538H91.52
			c0.442,0,0.666,0.222,0.666,0.667v1.64c0,0.461-0.224,0.692-0.666,0.692L79.602,23.699L79.602,23.699z M79.089,30.157
			c-0.462,0-0.691-0.223-0.691-0.666v-1.666c0-0.444,0.229-0.666,0.691-0.666h12.273c0.462,0,0.69,0.153,0.69,0.461v2.076
			c0,0.307-0.229,0.461-0.69,0.461H79.089z"/>
		<path fill="#FFFFFF" d="M113.707,38.177c-0.547,0-0.989-0.17-1.332-0.512l-9.917-10.275l-7.841,7.764h11.634
			c0.461,0,0.69,0.23,0.69,0.692v1.64c0,0.462-0.229,0.69-0.69,0.69H89.312c-0.323,0-0.485-0.145-0.485-0.436
			c0-0.052,0.013-0.115,0.039-0.192c0.023-0.076,0.08-0.148,0.166-0.218l16.066-16.143c0.323-0.325,0.685-0.487,1.075-0.487h1.691
			c0.427,0,0.803,0.163,1.128,0.487l15.836,16.092c0.085,0.085,0.142,0.171,0.166,0.256c0.024,0.086,0.038,0.163,0.038,0.229
			c0,0.272-0.196,0.409-0.59,0.409L113.707,38.177L113.707,38.177z"/>
		<path fill="#FFFFFF" d="M132.389,38.177c-1.213,0-2.332-0.217-3.355-0.653c-1.025-0.436-1.914-1.041-2.666-1.817
			c-0.751-0.777-1.336-1.699-1.754-2.768c-0.42-1.067-0.63-2.232-0.63-3.498c0-1.247,0.201-2.404,0.604-3.472
			c0.401-1.067,0.971-1.994,1.705-2.78c0.732-0.786,1.617-1.397,2.65-1.833s2.183-0.653,3.446-0.653h17.449
			c0.461,0,0.692,0.222,0.692,0.667v1.64c0,0.461-0.231,0.692-0.692,0.692h-11.453c-0.563,0-1.037,0.06-1.423,0.179
			c-0.385,0.119-0.695,0.333-0.937,0.641c-0.238,0.308-0.409,0.717-0.513,1.229s-0.153,1.162-0.153,1.948v2.792
			c0,0.871,0.061,1.604,0.18,2.204c0.12,0.598,0.304,1.076,0.553,1.435c0.246,0.359,0.559,0.62,0.935,0.782s0.829,0.243,1.358,0.243
			h11.557c0.443,0,0.666,0.23,0.666,0.692v1.64c0,0.462-0.223,0.69-0.666,0.69H132.389L132.389,38.177z"/>
		<path fill="#FFFFFF" d="M160.036,38.177c-0.323,0-0.485-0.11-0.485-0.333V23.699h-7.484c-0.322,0-0.484-0.094-0.484-0.282v-2.383
			c0-0.221,0.162-0.333,0.484-0.333h25.14c0.325,0,0.485,0.112,0.485,0.333v2.383c0,0.188-0.16,0.282-0.485,0.282h-7.509v14.145
			c0,0.223-0.153,0.333-0.461,0.333H160.036z"/>
		<path fill="#FFFFFF" d="M186.098,38.177c-1.248,0-2.389-0.222-3.422-0.666c-1.035-0.444-1.923-1.06-2.666-1.845
			c-0.742-0.786-1.318-1.712-1.729-2.781c-0.409-1.067-0.614-2.216-0.614-3.446c0-1.264,0.2-2.43,0.603-3.498
			c0.4-1.067,0.97-1.99,1.703-2.768c0.734-0.777,1.623-1.384,2.666-1.819c1.041-0.436,2.194-0.653,3.459-0.653h12.557
			c1.281,0,2.438,0.222,3.474,0.667c1.032,0.444,1.921,1.055,2.664,1.832c0.743,0.777,1.313,1.7,1.717,2.767
			c0.401,1.068,0.604,2.225,0.604,3.472c0,1.23-0.205,2.379-0.615,3.446c-0.41,1.068-0.986,1.991-1.73,2.768
			c-0.742,0.777-1.631,1.393-2.664,1.845c-1.031,0.452-2.184,0.679-3.445,0.679H186.098z M196.885,27.697
			c0-0.786-0.052-1.435-0.154-1.948c-0.102-0.513-0.271-0.922-0.512-1.229c-0.24-0.308-0.553-0.521-0.936-0.641
			c-0.385-0.12-0.859-0.179-1.424-0.179h-3.484c-0.513,0-0.943,0.064-1.294,0.192s-0.64,0.346-0.871,0.653
			c-0.229,0.308-0.397,0.718-0.499,1.23c-0.104,0.513-0.154,1.153-0.154,1.922v2.792c0,1.726,0.229,2.935,0.68,3.626
			c0.453,0.692,1.164,1.038,2.141,1.038h3.484c0.527,0,0.982-0.081,1.357-0.243s0.688-0.423,0.938-0.782
			c0.246-0.359,0.431-0.837,0.55-1.435c0.12-0.598,0.181-1.333,0.181-2.204v-2.792H196.885z"/>
		<path fill="#FFFFFF" d="M230.913,38.177c-0.685,0-1.248-0.229-1.69-0.69l-7.713-7.918c-0.138-0.137-0.244-0.269-0.322-0.397
			c-0.074-0.128-0.112-0.312-0.112-0.55v-0.794c0-0.444,0.221-0.666,0.666-0.666h3.51c0.82,0,1.433-0.155,1.833-0.462
			c0.398-0.307,0.604-0.734,0.604-1.281c0-1.144-0.813-1.717-2.437-1.717h-5.713v13.785c0,0.463-0.229,0.691-0.692,0.691h-8.789
			c-0.461,0-0.69-0.229-0.69-0.691V21.368c0-0.444,0.229-0.667,0.69-0.667h22.396c0.771,0,1.485,0.107,2.151,0.32
			c0.666,0.214,1.242,0.517,1.729,0.91s0.867,0.863,1.142,1.408c0.272,0.548,0.41,1.154,0.41,1.82c0,0.717-0.133,1.363-0.396,1.935
			c-0.266,0.572-0.623,1.063-1.075,1.473c-0.454,0.41-0.981,0.743-1.589,1c-0.606,0.256-1.252,0.436-1.938,0.538l7.072,7.252
			c0.12,0.103,0.18,0.238,0.18,0.408c0,0.104-0.039,0.196-0.115,0.282c-0.075,0.087-0.19,0.128-0.346,0.128L230.913,38.177
			L230.913,38.177z"/>
		<path fill="#F68521" d="M268.18,25.967c-0.4-1.067-0.975-1.99-1.718-2.767c-0.743-0.777-1.631-1.388-2.664-1.832
			c-1.034-0.444-2.19-0.667-3.474-0.667H247.77c-1.267,0-2.418,0.218-3.461,0.653c-1.041,0.436-1.932,1.042-2.664,1.819
			c-0.734,0.778-1.304,1.7-1.705,2.768c-0.399,1.068-0.603,2.234-0.603,3.498c0,1.23,0.206,2.379,0.615,3.446
			c0.409,1.068,0.985,1.995,1.729,2.781c0.743,0.785,1.633,1.4,2.666,1.845c1.032,0.444,2.174,0.666,3.422,0.666h5.996
			c1.09-0.003,0.293,0.007,1.572,0h4.984c1.265,0,2.414-0.227,3.447-0.679c1.031-0.452,1.922-1.067,2.664-1.845
			c0.742-0.778,1.318-1.7,1.729-2.768c0.409-1.067,0.614-2.216,0.614-3.446C268.781,28.192,268.58,27.035,268.18,25.967z
			 M258.559,30.489c0,0.871-0.062,1.604-0.181,2.204c-0.12,0.598-0.304,1.076-0.551,1.435c-0.248,0.359-0.56,0.62-0.937,0.782
			c-0.375,0.162-0.828,0.243-1.357,0.243h-3.485c-0.974,0-1.687-0.346-2.14-1.038c-0.452-0.691-0.678-1.9-0.678-3.626v-2.792
			c0-0.771,0.051-1.409,0.151-1.922c0.104-0.512,0.271-0.922,0.5-1.23c0.23-0.308,0.521-0.525,0.871-0.653
			c0.351-0.128,0.781-0.192,1.293-0.192h3.485c0.563,0,1.038,0.06,1.423,0.179c0.384,0.12,0.692,0.333,0.937,0.641
			c0.237,0.308,0.409,0.717,0.514,1.229c0.101,0.513,0.152,1.162,0.152,1.948v2.792H258.559z"/>
		<g>
			<path fill="#F68521" d="M260.432,37.104c0.325,0.545,0.656,1.073,0.965,1.619c0.125,0.228,0.254,0.309,0.533,0.279
				c1.155-0.111,2.133,0.277,2.809,1.23c1.703,2.41,3.379,4.841,5.061,7.265c0.434,0.622,0.625,1.321,0.628,2.078
				c-0.003,0.114,0.017,0.231,0.021,0.349c-0.091,0.36-0.183,0.725-0.273,1.085c-0.036,0.052-0.081,0.099-0.11,0.155
				c-0.707,1.371-1.834,2.074-3.375,2.117c-0.117,0.002-0.233,0.012-0.354,0.018c-0.361-0.092-0.723-0.184-1.085-0.275
				c-0.021-0.022-0.035-0.061-0.06-0.069c-0.875-0.386-1.469-1.041-1.894-1.886c-1.231-2.463-2.468-4.922-3.727-7.373
				c-0.628-1.221-0.587-2.368,0.196-3.497c0.045-0.068,0.057-0.218,0.018-0.285c-0.342-0.603-0.695-1.192-1.049-1.787
				C258.627,38.169,261.628,36.229,260.432,37.104z"/>
		</g>
	</g>
</g>
</svg>
