<svg id="UI-UX_Design" data-name="UI-UX Design" xmlns="http://www.w3.org/2000/svg" width="76.332" height="73.348" viewBox="0 0 76.332 73.348">
  <path id="Path_20633" data-name="Path 20633" d="M-2080.9-2184.725a1.973,1.973,0,0,1-2.018,1.066q-36.148-.024-72.3,0a1.974,1.974,0,0,1-2.019-1.066v-16.25a2.213,2.213,0,0,1,2.13-1.042q36.037.024,72.073,0a2.213,2.213,0,0,1,2.13,1.042Zm-3-14.217h-70.3v12.233h70.3Z" transform="translate(2157.235 2202.017)" fill="#112a85" fill-rule="evenodd"/>
  <path id="Path_20634" data-name="Path 20634" d="M-1957.427-1889.726a2.211,2.211,0,0,1-2.129,1.042q-21.9-.027-43.81-.013c-1.635,0-2.114-.481-2.114-2.137q0-7.078,0-14.156c0-1.618.458-2.069,2.092-2.069q21.942,0,43.884-.011a1.965,1.965,0,0,1,2.076,1.094Zm-45.015-2.036h41.985V-1904h-41.985Z" transform="translate(2033.76 1962.031)" fill="#112a85" fill-rule="evenodd"/>
  <path id="Path_20635" data-name="Path 20635" d="M-1860.789-2060.9a2.31,2.31,0,0,1-2.218,1.021c-7.152-.019-14.3-.01-21.456-.011-1.756,0-2.247-.494-2.247-2.257q0-14.006,0-28.012c0-1.655.52-2.174,2.179-2.174,7.2,0,14.4.009,21.605-.011a2.255,2.255,0,0,1,2.138,1.03Zm-3.042-2.071v-26.271h-19.8v26.271Z" transform="translate(1937.121 2112.778)" fill="#112a85" fill-rule="evenodd"/>
  <path id="Path_20636" data-name="Path 20636" d="M-2132.2-2092.282h21.911c1.693,0,2.19.49,2.19,2.155q0,14.086,0,28.172c0,1.579-.525,2.115-2.083,2.116q-22.061,0-44.121,0c-1.527,0-2.079-.545-2.079-2.045q0-14.16,0-28.321c0-1.557.53-2.076,2.121-2.076Q-2143.23-2092.284-2132.2-2092.282Zm-2.323,24.227c.235-.3.407-.5.569-.72q4.29-5.718,8.579-11.438c.97-1.293,1.956-1.3,2.932.005q5.076,6.758,10.145,13.521l1.137,1.513V-2089.2h-42.155v24.387c.365-.413.629-.706.887-1q4.213-4.876,8.426-9.752c1.073-1.24,1.925-1.23,2.993.009C-2138.871-2073.08-2136.726-2070.6-2134.522-2068.056Zm5.022-1.5c.556,0,1.022,0,1.488,0,1.191.014,2.384-.006,3.573.063a1.385,1.385,0,0,1,1.279,1.328,1.447,1.447,0,0,1-1.07,1.508,3.7,3.7,0,0,1-.953.114c-2.037.01-4.073,0-6.11.012-.232,0-.565.013-.678.157-.868,1.1-1.693,2.23-2.6,3.446h21.282c-.1-.165-.152-.271-.221-.365-1.815-2.424-3.622-4.854-5.467-7.256a1.25,1.25,0,0,0-.881-.36c-2.508-.028-5.019.045-7.524-.045A1.955,1.955,0,0,0-2129.5-2069.553Zm-13.013-3.146-8.414,9.744a2.917,2.917,0,0,0,.38.067q5.885.005,11.771-.006a.813.813,0,0,0,.57-.245c.63-.79,1.224-1.608,1.847-2.439Zm18.6-4.447-2.358,3.143h4.723Z" transform="translate(2156.54 2112.731)" fill="#112a85" fill-rule="evenodd"/>
  <path id="Path_20637" data-name="Path 20637" d="M-2143.415-1907.017q5.441,0,10.883,0c1.6,0,2.072.477,2.072,2.093q0,7.118,0,14.237c0,1.494-.528,2.031-2.006,2.031q-10.957,0-21.914,0c-1.472,0-2-.543-2-2.04q0-7.156,0-14.311c0-1.5.5-2.007,2.011-2.009Q-2148.893-1907.022-2143.415-1907.017Zm-9.914,3.035v12.263h19.828v-12.263Z" transform="translate(2156.542 1961.989)" fill="#112a85" fill-rule="evenodd"/>
  <path id="Path_20638" data-name="Path 20638" d="M-2066.013-2146.2q7.375,0,14.751,0a6.884,6.884,0,0,1,.966.042,1.371,1.371,0,0,1,1.231,1.292,1.352,1.352,0,0,1-.862,1.493,2.663,2.663,0,0,1-1.016.167q-15.086.012-30.172.01a1.711,1.711,0,0,1-1.777-.957,1.467,1.467,0,0,1,1.089-2,5.778,5.778,0,0,1,.965-.049Q-2073.425-2146.2-2066.013-2146.2Z" transform="translate(2096.84 2156.599)" fill="#f6770d" fill-rule="evenodd"/>
  <path id="Path_20639" data-name="Path 20639" d="M-1836.537-2176.469a4.726,4.726,0,0,1,4.632-4.755,4.757,4.757,0,0,1,4.889,4.663,3.149,3.149,0,0,1-.223,1.381,1.115,1.115,0,0,0,.4,1.531,3.839,3.839,0,0,1,.689.776,1.473,1.473,0,0,1-.155,1.844,1.438,1.438,0,0,1-1.835.209,6.38,6.38,0,0,1-1.046-.944.829.829,0,0,0-1.033-.247A4.715,4.715,0,0,1-1836.537-2176.469Zm6.484-.03a1.779,1.779,0,0,0-1.752-1.741,1.821,1.821,0,0,0-1.731,1.782,1.78,1.78,0,0,0,1.771,1.726A1.736,1.736,0,0,0-1830.053-2176.5Z" transform="translate(1896.297 2185.099)" fill="#f6770d" fill-rule="evenodd"/>
  <path id="Path_20640" data-name="Path 20640" d="M-1883.447-2144.64a1.567,1.567,0,0,1-1.466,1.581,1.54,1.54,0,0,1-1.542-1.5,1.466,1.466,0,0,1,1.464-1.466A1.466,1.466,0,0,1-1883.447-2144.64Z" transform="translate(1936.912 2156.458)" fill="#f6770d" fill-rule="evenodd"/>
  <path id="Path_20641" data-name="Path 20641" d="M-1924.565-1862.915q-5.888,0-11.775,0a6.985,6.985,0,0,1-.892-.042,1.47,1.47,0,0,1-1.285-1.335,1.463,1.463,0,0,1,1-1.493,3.213,3.213,0,0,1,.95-.131q12.073-.01,24.146,0c1.25,0,1.936.581,1.9,1.581a1.4,1.4,0,0,1-1.223,1.375,8.253,8.253,0,0,1-1.115.048Q-1918.715-1862.912-1924.565-1862.915Z" transform="translate(1979.278 1928.551)" fill="#f6770d" fill-rule="evenodd"/>
  <path id="Path_20642" data-name="Path 20642" d="M-1967.432-1862.846a1.516,1.516,0,0,1-1.509-1.521,1.529,1.529,0,0,1,1.512-1.449,1.513,1.513,0,0,1,1.5,1.531A1.49,1.49,0,0,1-1967.432-1862.846Z" transform="translate(2004.029 1928.465)" fill="#f6770d" fill-rule="evenodd"/>
  <path id="Path_20643" data-name="Path 20643" d="M-1851.813-2030.82c2.06,0,4.121,0,6.181,0,1.084,0,1.781.57,1.809,1.452s-.709,1.523-1.817,1.524q-6.255.006-12.511,0a1.457,1.457,0,0,1-1.6-1.234,1.431,1.431,0,0,1,.953-1.647,3.021,3.021,0,0,1,.881-.091C-1855.884-2030.823-1853.849-2030.82-1851.813-2030.82Z" transform="translate(1915.203 2062.723)" fill="#f6770d" fill-rule="evenodd"/>
  <path id="Path_20644" data-name="Path 20644" d="M-1851.83-2062.936c2.11,0,4.221-.019,6.331.008a1.467,1.467,0,0,1,1.465,2.067,1.471,1.471,0,0,1-1.423.908c-4.3.009-8.59.017-12.885-.006a1.46,1.46,0,0,1-1.514-1.508,1.441,1.441,0,0,1,1.546-1.459c2.16-.022,4.32-.007,6.48-.007Z" transform="translate(1915.269 2088.858)" fill="#f6770d" fill-rule="evenodd"/>
  <path id="Path_20645" data-name="Path 20645" d="M-1851.89-1995.8c-2.06,0-4.121.005-6.181,0-1.123,0-1.764-.541-1.779-1.458-.015-.947.653-1.523,1.8-1.524q6.218-.006,12.437,0a1.527,1.527,0,0,1,1.685,1.252,1.424,1.424,0,0,1-.839,1.575,2.875,2.875,0,0,1-1.016.148C-1847.818-1995.792-1849.854-1995.8-1851.89-1995.8Z" transform="translate(1915.265 2036.656)" fill="#f6770d" fill-rule="evenodd"/>
  <path id="Path_20646" data-name="Path 20646" d="M-1824.478-1963.756c-1.143,0-2.286.018-3.429-.005a1.523,1.523,0,0,1-1.691-1.49,1.537,1.537,0,0,1,1.694-1.5q3.466-.028,6.932,0a1.561,1.561,0,0,1,1.7,1.508,1.547,1.547,0,0,1-1.7,1.485C-1822.142-1963.739-1823.31-1963.756-1824.478-1963.756Z" transform="translate(1890.65 2010.605)" fill="#f6770d" fill-rule="evenodd"/>
  <path id="Path_20647" data-name="Path 20647" d="M-1858.488-1963.71a1.474,1.474,0,0,1-1.465-1.472,1.518,1.518,0,0,1,1.523-1.509,1.56,1.56,0,0,1,1.483,1.491A1.528,1.528,0,0,1-1858.488-1963.71Z" transform="translate(1915.349 2010.543)" fill="#f6770d" fill-rule="evenodd"/>
  <path id="Path_20648" data-name="Path 20648" d="M-2070.222-2066.87a5.258,5.258,0,0,1,5.275,5.233,5.329,5.329,0,0,1-5.3,5.318,5.38,5.38,0,0,1-5.261-5.3A5.314,5.314,0,0,1-2070.222-2066.87Zm-.025,7.507a2.264,2.264,0,0,0,2.318-2.215,2.322,2.322,0,0,0-2.246-2.3,2.274,2.274,0,0,0-2.3,2.232A2.234,2.234,0,0,0-2070.246-2059.363Z" transform="translate(2090.734 2092.054)" fill="#f6770d" fill-rule="evenodd"/>
</svg>
