<svg id="APM_Services_Icon" data-name="APM Services Icon" xmlns="http://www.w3.org/2000/svg" width="67.986" height="72.641" viewBox="0 0 67.986 72.641">
  <path id="Path_20628" data-name="Path 20628" d="M-3065.187-1964.128a24.049,24.049,0,0,0,2.765-1.944,14.9,14.9,0,0,1,7.3-3.973,13.515,13.515,0,0,1,8.9,1.137,14.714,14.714,0,0,0,5.618,1.282,13.571,13.571,0,0,0,8.845-2.254,6.121,6.121,0,0,1,7.183.129.894.894,0,0,0,.76.027,4.676,4.676,0,0,1,5.729.831c.4.356.656.257,1.031.089a5.653,5.653,0,0,1,7.011,1.857c.571.809.5,1.281-.313,1.842-6.649,4.571-13.271,9.186-19.974,13.677a11.621,11.621,0,0,1-7.7,1.771c-2.866-.283-5.7-.885-8.545-1.373-1.837-.315-3.665-.677-5.5-1.012a3.758,3.758,0,0,0-2.855.574q-2.372,1.557-4.8,3.03a.711.711,0,0,0-.387,1c.56,1.693,1.066,3.4,1.579,5.113.312,1.038-.028,1.489-1.113,1.489-4.551,0-9.1-.01-13.655.012a1.093,1.093,0,0,1-1.27-1.073q-.653-5.4-1.3-10.8-.74-6.1-1.485-12.2c-.1-.808-.207-1.616-.28-2.427-.082-.9.262-1.289,1.144-1.292,3-.008,6,.007,9-.011a1.152,1.152,0,0,1,1.242.958C-3065.941-1966.565-3065.6-1965.469-3065.187-1964.128Zm36.015,2.075a1.489,1.489,0,0,0-.045-.3,4.921,4.921,0,0,0-4.786-3.424c-2.6-.016-5.208,0-7.813-.008a4.516,4.516,0,0,1-1.331-.1c-1.467-.468-2.934-.952-4.365-1.519a11.808,11.808,0,0,0-12.135,1.507c-1.628,1.221-2.958,2.85-5.051,3.4,1.292,4.231,2.549,8.347,3.823,12.521,1.8-1.135,3.481-2.21,5.177-3.263a4.863,4.863,0,0,1,3.462-.768c2.637.458,5.26.994,7.9,1.438,2.557.429,5.075,1.192,7.71,1.007a11.012,11.012,0,0,0,5.591-1.679q8.372-5.708,16.709-11.465c.755-.518,1.5-1.044,2.263-1.571a3.611,3.611,0,0,0-4.512-.631c-3.243,1.731-6.472,3.489-9.712,5.225-.447.24-.857.42-.865,1.065,0,.223-.406.513-.686.638a2.1,2.1,0,0,1-.858.028c-3.963-.11-7.925-.615-11.89-.011a.915.915,0,0,1-1.145-.816.9.9,0,0,1,.968-1.076q4.014-.12,8.029-.2C-3031.559-1962.072-3030.381-1962.053-3029.173-1962.053Zm-46.477-4.678c.981,8.052,1.952,16.01,2.921,23.961h12.019c-.058-.227-.1-.4-.147-.573q-3.222-10.573-6.448-21.144c-.222-.725-.265-1.733-.762-2.084-.535-.377-1.506-.151-2.288-.157C-3072.084-1966.738-3073.814-1966.73-3075.649-1966.73Zm56.209-.821a2.936,2.936,0,0,0-3.538-.426c-1.092.624-2.211,1.2-3.317,1.8q-1.055.572-2.11,1.151l.979,1.784Zm-6.829-.829c-1.5-1.123-3.852-.632-5.692.889.6.3,1.188.619,1.8.9a.641.641,0,0,0,.492.027C-3028.541-1967.148-3027.42-1967.76-3026.27-1968.38Z" transform="translate(3077.657 2013.465)" fill="#112a85" fill-rule="evenodd"/>
  <path id="Path_20629" data-name="Path 20629" d="M-2972.062-2162.056c.473,1.2.9,2.328,1.372,3.431a.841.841,0,0,0,.583.381c.728.1,1.465.134,2.2.2.973.088,1.254.385,1.256,1.333,0,1.526-.01,3.052.006,4.578a1.018,1.018,0,0,1-1.069,1.172c-.786.063-1.574.129-2.348.268a1.022,1.022,0,0,0-.635.511c-.425.9-.812,1.819-1.154,2.753a1.009,1.009,0,0,0,.1.81c.458.64.988,1.229,1.494,1.835a1.052,1.052,0,0,1-.081,1.6q-1.653,1.64-3.291,3.295a1.06,1.06,0,0,1-1.655.046c-.676-.585-1.321-1.465-2.091-1.606-.7-.128-1.524.69-2.342.861a1.747,1.747,0,0,0-1.587,2.036,8.84,8.84,0,0,1-.147,1.568.9.9,0,0,1-.959.853c-1.684.006-3.368.01-5.052,0a.911.911,0,0,1-.971-.927c-.093-.862-.161-1.729-.3-2.583a.934.934,0,0,0-.472-.583c-.923-.435-1.863-.838-2.817-1.2a.907.907,0,0,0-.738.094c-.635.465-1.231.985-1.83,1.5a1.058,1.058,0,0,1-1.654-.061c-1.084-1.111-2.187-2.2-3.292-3.293a1.028,1.028,0,0,1-.077-1.591c.513-.6,1.038-1.192,1.495-1.833a1.014,1.014,0,0,0,.085-.813c-.342-.934-.726-1.855-1.15-2.754a1.03,1.03,0,0,0-.643-.513,21.72,21.72,0,0,0-2.348-.269c-.732-.052-1.1-.384-1.1-1.14.011-1.579.021-3.158,0-4.736a1.048,1.048,0,0,1,1.075-1.186c.784-.083,1.576-.1,2.353-.225a1.019,1.019,0,0,0,.656-.5c.438-.921.83-1.867,1.191-2.822a.9.9,0,0,0-.08-.734c-.464-.636-.982-1.235-1.5-1.832a1.071,1.071,0,0,1,.048-1.661q1.656-1.637,3.3-3.291a1.051,1.051,0,0,1,1.6-.069c.583.492,1.189.958,1.754,1.469a.749.749,0,0,0,.972.117c.872-.418,1.795-.73,2.672-1.14a1.008,1.008,0,0,0,.5-.628c.143-.8.215-1.615.287-2.426a.946.946,0,0,1,1.064-.993c1.631.007,3.263.01,4.894,0a.943.943,0,0,1,1.059.923c.1.782.209,1.567.229,2.353.012.491.223.657.645.81a21.473,21.473,0,0,1,2.531,1.071.821.821,0,0,0,1.1-.147c.54-.5,1.135-.938,1.7-1.416a1.038,1.038,0,0,1,1.594.083c1.071,1.088,2.152,2.164,3.216,3.258.618.635.623,1,.05,1.714S-2971.54-2162.687-2972.062-2162.056Zm-.239-2.747-2.386-2.313c-.583.481-1.245,1-1.876,1.555a1.243,1.243,0,0,1-1.572.119,27.858,27.858,0,0,0-3.752-1.588,1.423,1.423,0,0,1-1.166-1.437c-.046-.779-.139-1.555-.214-2.36h-3.345c-.087.871-.194,1.727-.25,2.585a1.211,1.211,0,0,1-.907,1.139c-1.361.531-2.721,1.073-4.043,1.692a1.225,1.225,0,0,1-1.506-.147c-.652-.564-1.327-1.1-1.873-1.555l-2.411,2.343c.47.57.95,1.2,1.478,1.778a1.382,1.382,0,0,1,.175,1.778,27.575,27.575,0,0,0-1.551,3.681,1.423,1.423,0,0,1-1.372,1.155c-.828.062-1.653.154-2.47.232v3.324c.872.095,1.7.222,2.539.265a1.279,1.279,0,0,1,1.267,1.039,36.856,36.856,0,0,0,1.617,3.825,1.306,1.306,0,0,1-.146,1.644c-.554.627-1.068,1.288-1.509,1.824l2.382,2.375c.595-.49,1.269-1.034,1.931-1.594a1.2,1.2,0,0,1,1.447-.105c1.3.606,2.62,1.188,3.967,1.682a1.269,1.269,0,0,1,.988,1.233c.056.858.165,1.714.249,2.554h3.355c.076-.873.157-1.683.215-2.5a1.392,1.392,0,0,1,1.1-1.336,37.511,37.511,0,0,0,3.823-1.616,1.273,1.273,0,0,1,1.579.139c.648.564,1.323,1.1,1.963,1.626l2.356-2.365c-.537-.65-1.077-1.328-1.645-1.982a1.237,1.237,0,0,1-.143-1.511c.607-1.3,1.163-2.627,1.676-3.968a1.234,1.234,0,0,1,1.17-.963c.86-.053,1.716-.175,2.561-.265v-3.344l-2.647-.254a1.257,1.257,0,0,1-1.135-1.007,36.34,36.34,0,0,0-1.615-3.824,1.347,1.347,0,0,1,.165-1.711C-2973.292-2163.56-2972.795-2164.2-2972.3-2164.8Z" transform="translate(3018.944 2172.755)" fill="#112a85" fill-rule="evenodd"/>
  <path id="Path_20630" data-name="Path 20630" d="M-3038.591-1866.959a2.823,2.823,0,0,1,2.749,2.932,2.886,2.886,0,0,1-2.944,2.762,2.85,2.85,0,0,1-2.731-3.038A2.8,2.8,0,0,1-3038.591-1866.959Zm.173,3.766c.171-.238.576-.557.624-.923a.811.811,0,0,0-.917-.918.84.84,0,0,0-.9.884C-3039.617-1863.572-3039.252-1863.26-3038.418-1863.194Z" transform="translate(3049.128 1931.348)" fill="#112a85" fill-rule="evenodd"/>
  <path id="Path_20631" data-name="Path 20631" d="M-2957.008-2137.584a10.82,10.82,0,0,1,10.846,11.049,10.919,10.919,0,0,1-10.972,10.725,10.973,10.973,0,0,1-10.8-10.928A10.886,10.886,0,0,1-2957.008-2137.584Zm-.058,19.809a8.954,8.954,0,0,0,9.013-8.928,9,9,0,0,0-8.978-8.979,9,9,0,0,0-8.969,8.909A8.949,8.949,0,0,0-2957.065-2117.774Z" transform="translate(2991.033 2144.99)" fill="#f6770d" fill-rule="evenodd"/>
  <path id="Path_20632" data-name="Path 20632" d="M-2936.611-2097.925l4.183-4.1c.188-.184.37-.375.569-.547a.9.9,0,0,1,1.34-.012.911.911,0,0,1-.026,1.4c-.756.769-1.541,1.509-2.312,2.263-.884.865-1.761,1.736-2.648,2.6-.746.725-1.151.736-1.876.037q-1.278-1.232-2.535-2.487c-.532-.532-.591-1.117-.141-1.51a.948.948,0,0,1,1.458.131C-2937.94-2099.435-2937.3-2098.7-2936.611-2097.925Z" transform="translate(2969.268 2117.589)" fill="#f6770d" fill-rule="evenodd"/>
</svg>
