<svg id="Cloud_ERP_Services_Icon" data-name="Cloud ERP Services Icon" xmlns="http://www.w3.org/2000/svg" width="75.719" height="75.712" viewBox="0 0 75.719 75.712">
  <path id="Path_20624" data-name="Path 20624" d="M-2579.339-2090.335c.657-1.135,1.37-2.3,2.006-3.511a1.838,1.838,0,0,0,.08-1.1,2.594,2.594,0,0,0-2.645-2.28,4.8,4.8,0,0,1-.88-.237c-1.774-.484-1.774-.483-1.774-2.281,0-1.069,0-2.137,0-3.205a1.816,1.816,0,0,0-1.966-1.325.487.487,0,0,1-.071.028,2.855,2.855,0,0,0-2.45,2.788c-.1.862-.242,2-.811,2.447-.537.425-1.657.123-2.52.125-1.984.005-3.968-.01-5.952.01-.449,0-.67-.095-.777-.583-.251-1.138-.6-2.254-.876-3.387a1.383,1.383,0,0,0-.783-.906,2.8,2.8,0,0,0-3.457.29,22.566,22.566,0,0,1-2.324,1.368l-6.538-6.57c.646-1.116,1.358-2.284,1.994-3.491a1.846,1.846,0,0,0,.088-1.1,2.678,2.678,0,0,0-2.715-2.309c-.647-.065-1.268-.361-1.913-.49-.506-.1-.7-.3-.69-.855.035-2.645.03-5.291,0-7.936-.005-.508.16-.7.646-.807,1.137-.256,2.268-.552,3.379-.9a1.724,1.724,0,0,0,.782-.679,2.755,2.755,0,0,0-.247-3.573,19.141,19.141,0,0,1-1.324-2.242l6.579-6.549c1.08.624,2.272,1.289,3.437,2a1.374,1.374,0,0,0,1.194.076,2.732,2.732,0,0,0,2.23-2.637,10.482,10.482,0,0,1,.6-2.2.824.824,0,0,1,.6-.458q4.121-.045,8.241,0a.809.809,0,0,1,.592.461c.354,1.164.655,2.344.952,3.525a.962.962,0,0,0,.757.83,2.172,2.172,0,0,1,.708.269,1.514,1.514,0,0,0,2-.109c.305-.268.564-.588.844-.884l-.156-.2c1.322-.347,2.641-.7,3.966-1.036a1.316,1.316,0,0,0,.844-.747,2.852,2.852,0,0,0-.3-3.524,19.562,19.562,0,0,1-1.31-2.22l6.573-6.578c1.017.591,2.162,1.23,3.28,1.916a1.672,1.672,0,0,0,1.469.112,2.648,2.648,0,0,0,2.081-2.5,13.1,13.1,0,0,1,.613-2.274.821.821,0,0,1,.586-.469c2.747-.031,5.494-.012,8.241-.03.419,0,.558.155.651.544.276,1.159.609,2.3.9,3.46a1.316,1.316,0,0,0,.737.851,2.866,2.866,0,0,0,3.525-.281,20.8,20.8,0,0,1,2.216-1.307l6.578,6.585c-.612,1.057-1.266,2.232-1.968,3.378a1.383,1.383,0,0,0-.1,1.194,2.793,2.793,0,0,0,2.7,2.26,10.361,10.361,0,0,1,2.124.583.828.828,0,0,1,.48.577q.047,4.158,0,8.318a.749.749,0,0,1-.438.538c-1.141.342-2.295.643-3.452.929a1.471,1.471,0,0,0-.97.813,2.828,2.828,0,0,0,.315,3.456,27.053,27.053,0,0,1,1.429,2.434l-3.64,3.491,3.638,3.57c-.731,1.264-1.386,2.439-2.087,3.585a1.383,1.383,0,0,0-.1,1.194,2.793,2.793,0,0,0,2.7,2.259,10.435,10.435,0,0,1,2.124.58.829.829,0,0,1,.48.579q.047,4.159,0,8.318a.747.747,0,0,1-.436.54q-1.748.52-3.527.941c-.471.113-.651.409-.891.8a2.8,2.8,0,0,0,.308,3.454,24.352,24.352,0,0,1,1.351,2.3l-6.564,6.54c-1.129-.653-2.324-1.321-3.493-2.032a1.326,1.326,0,0,0-1.127-.067,2.762,2.762,0,0,0-2.273,2.685,10.357,10.357,0,0,1-.582,2.124.834.834,0,0,1-.566.494q-4.158.048-8.318,0a.816.816,0,0,1-.564-.5c-.346-1.14-.65-2.293-.93-3.451a1.386,1.386,0,0,0-.79-.9,2.8,2.8,0,0,0-3.455.3,22.433,22.433,0,0,1-2.318,1.362Zm34.437-.41c-.565-.973-1.137-2.014-1.768-3.019a1.064,1.064,0,0,1-.011-1.171c.491-1.054.937-2.133,1.33-3.228a.95.95,0,0,1,.748-.727c1.195-.291,2.377-.633,3.534-.947v-5.426c-1.2-.323-2.389-.61-3.549-.973a1.3,1.3,0,0,1-.683-.656c-.5-1.106-.909-2.255-1.422-3.354a.954.954,0,0,1,.033-1.032c.626-1.035,1.219-2.09,1.746-3l-3.911-3.893c-.948.549-1.991,1.128-3.008,1.752a.944.944,0,0,1-1.032.008c-1.054-.492-2.13-.946-3.225-1.338a1.059,1.059,0,0,1-.821-.845c-.271-1.173-.62-2.328-.928-3.458h-5.42c-.324,1.207-.612,2.391-.975,3.551a1.3,1.3,0,0,1-.656.68c-1.106.5-2.254.91-3.354,1.423a.952.952,0,0,1-1.031-.034c-1.034-.628-2.089-1.222-3.071-1.792l-3.87,3.875c.566.975,1.148,2.01,1.765,3.024a1,1,0,0,1,.047,1.1,35.091,35.091,0,0,0-1.365,3.3.953.953,0,0,1-.746.729c-1.179.286-2.346.624-3.534.946v5.412c1.207.326,2.391.616,3.55.981a1.3,1.3,0,0,1,.681.657q.769,1.693,1.427,3.435a1.182,1.182,0,0,1-.027.871c-.579,1.09-1.218,2.149-1.753,3.078l3.9,3.909c.984-.57,2.027-1.2,3.1-1.774a1.186,1.186,0,0,1,.872-.01c1.134.434,2.235.955,3.375,1.371a.949.949,0,0,1,.728.744c.29,1.2.633,2.379.947,3.54h5.42c.324-1.2.612-2.388.976-3.548a1.3,1.3,0,0,1,.656-.684c1.128-.513,2.276-.987,3.435-1.427a1.182,1.182,0,0,1,.871.024c1.091.579,2.15,1.218,3.156,1.8Zm-28.108-30.7c1.36.788,2.539,1.478,3.727,2.152.211.12.5.3.685.236a7.279,7.279,0,0,0,2.076-.906c.325-.246.287-.936.489-1.392.236-.535-.045-.688-.455-.9a12.982,12.982,0,0,1-7.471-10.938,13.393,13.393,0,0,1,15.31-14.4,13.424,13.424,0,0,1,11.045,9.773,13.361,13.361,0,0,1-4.665,14.054c-.917.705-1.944,1.267-2.913,1.89.055,1.26.46,2.288,1.91,2.527a.808.808,0,0,1,.277.124.966.966,0,0,0,1.123-.048c1.168-.713,2.365-1.379,3.57-2.075l1.137,1.081,2.266-2.226c-.593-1.025-1.183-2.089-1.82-3.125a.884.884,0,0,1-.012-.965c.5-1.082.962-2.179,1.367-3.3a1,1,0,0,1,.793-.777c1.177-.276,2.339-.62,3.508-.937V-2137c-1.187-.321-2.354-.659-3.533-.942a.949.949,0,0,1-.753-.721c-.416-1.141-.938-2.243-1.364-3.381a1.283,1.283,0,0,1,.032-.937c.565-1.073,1.2-2.112,1.753-3.074l-3.885-3.884c-.993.573-2.037,1.2-3.112,1.775a1.182,1.182,0,0,1-.871.026c-1.159-.44-2.308-.914-3.437-1.428a1.3,1.3,0,0,1-.656-.685c-.369-1.176-.663-2.375-.98-3.55h-5.42c-.323,1.2-.612,2.381-.975,3.54a1.292,1.292,0,0,1-.645.692c-1.128.515-2.276.987-3.435,1.428a1.184,1.184,0,0,1-.872-.02c-1.092-.581-2.151-1.221-3.171-1.811l-3.869,3.866c.58,1,1.171,2.061,1.8,3.1a.947.947,0,0,1,.015,1.032,33.563,33.563,0,0,0-1.306,3.157,1.176,1.176,0,0,1-.945.921c-1.136.251-2.252.59-3.395.9v5.423c1.206.324,2.39.612,3.551.975a1.3,1.3,0,0,1,.682.658c.5,1.106.909,2.255,1.424,3.355a.953.953,0,0,1-.038,1.032c-.625,1.036-1.218,2.091-1.783,3.067l2.316,2.369Zm-9.572-13.878a5.642,5.642,0,0,0-.772.429,1.2,1.2,0,0,1-1.5.065,24.6,24.6,0,0,0-3.091-1.266.945.945,0,0,1-.725-.751c-.283-1.18-.621-2.346-.938-3.519h-5.429c-.325,1.213-.611,2.4-.975,3.558a1.3,1.3,0,0,1-.667.671c-1.083.49-2.209.889-3.286,1.392a1,1,0,0,1-1.1-.012c-1.028-.636-2.085-1.223-3.033-1.773l-3.883,3.875c.59,1.02,1.23,2.084,1.817,3.177a1.089,1.089,0,0,1,.016.807c-.447,1.157-.977,2.283-1.4,3.448a.959.959,0,0,1-.765.71c-1.176.29-2.341.625-3.52.945v5.4c1.183.321,2.349.657,3.526.945a.954.954,0,0,1,.76.715c.413,1.142.936,2.244,1.362,3.382a1.28,1.28,0,0,1-.024.937c-.565,1.074-1.2,2.113-1.763,3.089l3.871,3.9c.989-.574,2.027-1.162,3.046-1.779a.953.953,0,0,1,1.032-.042c1.1.516,2.248.924,3.354,1.425a1.3,1.3,0,0,1,.661.676c.369,1.177.662,2.378.981,3.564h5.417c.318-1.167.661-2.307.927-3.465a1.016,1.016,0,0,1,.824-.843,9.243,9.243,0,0,0,2.332-.9,2.1,2.1,0,0,1,2.784.064c.029.024.1,0,.161,0,.027-.215.055-.436.085-.673a20.476,20.476,0,0,1,2.592-.679,2.8,2.8,0,0,0,2.688-2.273,1.305,1.305,0,0,0-.072-1.127c-.711-1.169-1.38-2.364-2.144-3.684l3.424-3.321-2.847-2.854a13.446,13.446,0,0,1-10.458,13.348,13.458,13.458,0,0,1-14.89-6.823,13.358,13.358,0,0,1,2.7-16.074,13.005,13.005,0,0,1,9.5-3.634,13.541,13.541,0,0,1,9.43,4.145Zm-20.732,14.437a11.059,11.059,0,0,0,10.952,11.011,11.062,11.062,0,0,0,11.03-10.935,11.058,11.058,0,0,0-10.992-11.048A11.054,11.054,0,0,0-2603.314-2120.882Zm51.263-6.644a10.8,10.8,0,0,0-.694-14.444,10.941,10.941,0,0,0-15.495-.172,10.839,10.839,0,0,0-.858,14.628c.329-2.817,2.355-4.027,4.675-4.986a5.459,5.459,0,0,1-1.038-3.783c.03-.532,0-1.068.005-1.6a4.9,4.9,0,0,1,4.208-4.932,4.75,4.75,0,0,1,5.379,3.875c.369,2.161.568,4.4-.821,6.467C-2554.37-2131.538-2552.4-2130.308-2552.051-2127.526Zm-8.536,3c1.475,0,2.949,0,4.425,0,1.217,0,1.7-.47,1.7-1.643,0-.2,0-.407,0-.61a2.81,2.81,0,0,0-1.659-2.691c-.912-.446-1.821-.9-2.721-1.367-.187-.1-.482-.291-.471-.417.081-.907-.4-1.906.536-2.7a2.176,2.176,0,0,0,.608-1.348,13.524,13.524,0,0,0,.006-2.74,2.532,2.532,0,0,0-2.535-2.361,2.5,2.5,0,0,0-2.314,2.639c-.009.687,0,1.373,0,2.06a2.675,2.675,0,0,0,.82,1.983,1.246,1.246,0,0,1,.386.607c.265,1.779.163,1.957-1.416,2.745-.454.226-.9.476-1.368.669a3.171,3.171,0,0,0-2.1,3.425c.063,1.3.452,1.743,1.76,1.745Q-2562.761-2124.52-2560.587-2124.523Zm-18.419,1.839a12.883,12.883,0,0,1,.99-1.656,2.841,2.841,0,0,0,.218-3.7c-.1-.16-.2-.4-.349-.441-1.227-.354-2.466-.671-3.912-1.054A14.164,14.164,0,0,1-2579.006-2122.684Z" transform="translate(2614.315 2156.28)" fill="#112a85" fill-rule="evenodd"/>
  <path id="Path_20625" data-name="Path 20625" d="M-2402.876-1931.4a13.409,13.409,0,0,1-13.385-13.455,13.4,13.4,0,0,1,13.51-13.4,13.406,13.406,0,0,1,13.347,13.49A13.411,13.411,0,0,1-2402.876-1931.4Zm-10.947-13.445a11.059,11.059,0,0,0,10.957,11.007,11.062,11.062,0,0,0,11.025-10.939,11.057,11.057,0,0,0-11-11.043A11.054,11.054,0,0,0-2413.823-1944.848Z" transform="translate(2456.573 1998.566)" fill="#112a85" fill-rule="evenodd"/>
  <path id="Path_20626" data-name="Path 20626" d="M-2534.719-1997.546h2.454v-3.571h2.426v3.563h2.422v2.437h-14.534v-10.892h2.355v8.439h2.453v-6.007h2.424Z" transform="translate(2556.68 2036.594)" fill="#f6770d" fill-rule="evenodd"/>
  <path id="Path_20627" data-name="Path 20627" d="M-2363.487-1916.967h-2.437c0-.63-.025-1.255.008-1.876a.973.973,0,0,0-.6-1.065,3.467,3.467,0,0,1-1.86-3.087h2.4c.062.146.089.411.226.5a2.814,2.814,0,0,0,1.274.59.956.956,0,0,0,.941-1.085,2.731,2.731,0,0,0-.786-1.166c-.1-.118-.38-.1-.58-.115a3.691,3.691,0,0,1-3.4-2.892,3.588,3.588,0,0,1,1.812-3.935.912.912,0,0,0,.577-1c-.042-.606-.01-1.216-.01-1.883h2.437c0,.622.028,1.25-.009,1.875a.919.919,0,0,0,.569,1,3.488,3.488,0,0,1,1.885,3.128h-2.389c-.048-.113-.1-.273-.178-.423a1.126,1.126,0,0,0-1.361-.7,1.137,1.137,0,0,0-.935,1.226,1.185,1.185,0,0,0,1.052,1.138c.3.06.612.026.907.091a3.728,3.728,0,0,1,2.878,3.01,3.611,3.611,0,0,1-1.883,3.77.86.86,0,0,0-.545.938C-2363.458-1918.3-2363.487-1917.668-2363.487-1916.967Z" transform="translate(2418.445 1979.227)" fill="#f6770d" fill-rule="evenodd"/>
</svg>
