<svg id="Cloud_Engineering_Services_Icon" data-name="Cloud Engineering Services Icon" xmlns="http://www.w3.org/2000/svg" width="105.512" height="69.042" viewBox="0 0 105.512 69.042">
  <path id="Path_20618" data-name="Path 20618" d="M-1004.25-2631.306c.329-1.324.571-2.678,1-3.969a17.939,17.939,0,0,1,9.537-10.792,1.11,1.11,0,0,0,.77-1.309,22.162,22.162,0,0,1,17.707-23.294,23.507,23.507,0,0,1,7.881-.148.918.918,0,0,0,1.072-.487c3.586-5.355,8.611-8.345,15.048-8.509,7.162-.182,12.689,2.96,16.481,9.045a1.713,1.713,0,0,0,1.694.946c7.623-.028,15.246-.018,22.87-.016,1.913,0,2.585.677,2.585,2.6,0,8.722.012,17.444-.012,26.167,0,1.314-.173,2.627-.278,4.111.3.125.845.31,1.353.562a13.321,13.321,0,0,1,7.6,9.875,4.05,4.05,0,0,0,.2.572v3.5a31.174,31.174,0,0,1-2.077,5.313,12.546,12.546,0,0,1-11.913,6.3c-1.7-.071-2.566-.882-2.486-2.219.076-1.257,1.049-2.04,2.65-1.932a9.1,9.1,0,0,0,9.3-6.625,9.2,9.2,0,0,0-6.944-11.627c-2.582-.582-2.9-1.035-2.471-3.64h-4.4c0,2.543.008,5,0,7.465a2.051,2.051,0,0,1-1.733,2.206,2.027,2.027,0,0,1-2.37-2.077c-.025-2.164-.007-4.327-.007-6.491,0-.334,0-.668,0-1.051h-4.13c0,.562,0,1.13,0,1.7,0,1.923.013,3.846,0,5.77a2.013,2.013,0,0,1-2.095,2.164,2.006,2.006,0,0,1-2.009-2.144c-.017-2.468,0-4.935,0-7.471h-4.13c0,2.48.008,4.941,0,7.4a2.049,2.049,0,0,1-1.738,2.2,2.033,2.033,0,0,1-2.366-2.083c-.025-1.236-.006-2.473-.006-3.709s0-2.472,0-3.793h-4.071c-.018.256-.055.551-.055.846-.005,2.061,0,4.121,0,6.182,0,1.907-.679,2.571-2.62,2.572-2.233,0-4.465.022-6.7-.013a1.15,1.15,0,0,0-1.247.737,6.073,6.073,0,0,1-6.991,3.219,6.127,6.127,0,0,1-4.69-6.312,6.2,6.2,0,0,1,4.991-5.78,6.119,6.119,0,0,1,6.644,3.225,1.287,1.287,0,0,0,1.4.824c1.645-.041,3.292-.013,5.017-.013v-5.476c-1.716-.5-4.3.947-4.946-2.124h-21.36v1q0,4.121,0,8.242c0,1.765-.721,2.469-2.514,2.472-1.717,0-3.435.026-5.151-.013a1.145,1.145,0,0,0-1.248.735,6.079,6.079,0,0,1-6.89,3.249,6.129,6.129,0,0,1-4.795-6.028,6.126,6.126,0,0,1,4.795-6.027,6.067,6.067,0,0,1,6.842,3.158,1.274,1.274,0,0,0,1.4.827c1.1-.049,2.194-.013,3.45-.013v-1.122c0-2.748,0-5.5,0-8.242,0-1.639.746-2.379,2.394-2.38q10.973-.006,21.945,0h1.159v-8.19c-.277-.019-.571-.057-.865-.058-3.3,0-6.594.007-9.891-.012a1.085,1.085,0,0,0-1.181.676,6.072,6.072,0,0,1-6.956,3.29,6.123,6.123,0,0,1-4.752-6.163,6.17,6.17,0,0,1,4.935-5.925,6.193,6.193,0,0,1,6.594,2.962c.188.324.345.666.526,1.019h11.578v-4.093c-1.564,0-3.1.007-4.635,0a2.043,2.043,0,0,1-2.3-2.058,2.04,2.04,0,0,1,2.309-2.052c1.51-.008,3.02,0,4.7,0,0-1.25,0-2.47,0-3.689,0-1.782.709-2.49,2.489-2.492,3.021,0,6.042,0,9.323,0-.443-.538-.749-.956-1.1-1.331a14.46,14.46,0,0,0-23.137,2.957c-1.117,2.039-1.423,2.179-3.668,1.691a18.012,18.012,0,0,0-21.78,15.509,22.694,22.694,0,0,0,.121,4.821c.2,1.94-.085,2.638-1.828,3.245a14.383,14.383,0,0,0-9.64,14.234,14.434,14.434,0,0,0,11.2,13.274,19.912,19.912,0,0,0,10.761-.5,8.5,8.5,0,0,0,5.228-4.372,2.24,2.24,0,0,1,2.061-1.458,2.217,2.217,0,0,1,1.982,1.418,8.793,8.793,0,0,0,6.011,4.615,25.118,25.118,0,0,0,12.425.079,9.567,9.567,0,0,0,5.585-3.616c.993-1.349,2.816-1.4,3.51-.018,1.241,2.482,3.468,3.328,5.881,3.828a29.855,29.855,0,0,0,4.8.436c1.477.062,2.381.7,2.458,1.921.083,1.318-.675,2.162-2.229,2.235-4.7.222-9.062-.736-12.873-3.88-4.024,3.369-8.875,4.089-13.941,3.935s-9.918-1-13.635-5.085a14.594,14.594,0,0,1-8.864,4.665c-7.759,1.319-14.694-.082-20.1-6.282a17.707,17.707,0,0,1-4.21-9.12,2.841,2.841,0,0,0-.2-.551Zm57.538-9.756H-911.8v-24.607h-34.912Zm-19.629-12.311a2.133,2.133,0,0,0-2.043-2.035,2.136,2.136,0,0,0-2.06,2.017,2.133,2.133,0,0,0,2.093,2.088A2.14,2.14,0,0,0-966.342-2653.373Zm-20.411,22.076a2.134,2.134,0,0,0-2.034,2.044,2.138,2.138,0,0,0,2.018,2.061,2.134,2.134,0,0,0,2.085-2.1A2.136,2.136,0,0,0-986.753-2631.3Zm30.921,2.066a2.135,2.135,0,0,0-2.012-2.066,2.138,2.138,0,0,0-2.091,1.986,2.132,2.132,0,0,0,2.063,2.118A2.138,2.138,0,0,0-955.832-2629.231Z" transform="translate(1004.25 2679.82)" fill="#112a85" fill-rule="evenodd"/>
  <path id="Path_20619" data-name="Path 20619" d="M-709.4-2455.268a2.082,2.082,0,0,1,2.1,2.059,2.1,2.1,0,0,1-2.119,2.049,2.09,2.09,0,0,1-2.044-2.016A2.077,2.077,0,0,1-709.4-2455.268Z" transform="translate(791.92 2516.977)" fill="#112a85" fill-rule="evenodd"/>
  <path id="Path_20620" data-name="Path 20620" d="M-750.258-2606.012c1.644,0,3.289-.01,4.933,0a2.027,2.027,0,0,1,2.228,2.022,2.032,2.032,0,0,1-2.268,2.085q-4.933.014-9.867,0a2.032,2.032,0,0,1-2.277-2.075,2.044,2.044,0,0,1,2.319-2.034C-753.548-2606.019-751.9-2606.012-750.258-2606.012Z" transform="translate(825.316 2626.298)" fill="#f6770d" fill-rule="evenodd"/>
  <path id="Path_20621" data-name="Path 20621" d="M-770.484-2576a2.025,2.025,0,0,1,2.084,2.051,2.028,2.028,0,0,1-2.078,2.058,2.024,2.024,0,0,1-2.031-2A2.025,2.025,0,0,1-770.484-2576Z" transform="translate(836.194 2604.529)" fill="#f6770d" fill-rule="evenodd"/>
  <path id="Path_20622" data-name="Path 20622" d="M-736.72-2576a2.024,2.024,0,0,1,2.067,2.067,2.028,2.028,0,0,1-2.094,2.042,2.023,2.023,0,0,1-2.015-2.017A2.025,2.025,0,0,1-736.72-2576Z" transform="translate(811.72 2604.529)" fill="#f6770d" fill-rule="evenodd"/>
  <path id="Path_20623" data-name="Path 20623" d="M-702.983-2571.891a2.027,2.027,0,0,1-2.034-2.1,2.026,2.026,0,0,1,2.126-2.008,2.025,2.025,0,0,1,1.983,2.049A2.026,2.026,0,0,1-702.983-2571.891Z" transform="translate(787.249 2604.532)" fill="#f6770d" fill-rule="evenodd"/>
</svg>
