<svg id="Icon_-_LinkedIn" data-name="Icon - LinkedIn" xmlns="http://www.w3.org/2000/svg" width="26.093" height="25" viewBox="0 0 26.093 25">
  <path id="Vector" d="M24.226,25H1.861A1.834,1.834,0,0,1,0,23.2V1.8A1.834,1.834,0,0,1,1.861,0H24.226a1.837,1.837,0,0,1,1.866,1.8V23.2A1.837,1.837,0,0,1,24.226,25ZM16.507,12.462c2.008,0,2.008,1.829,2.008,3.164v5.805H22.38V14.89c0-2.955-.562-5.689-4.638-5.689a4.134,4.134,0,0,0-3.666,1.925h-.05V9.5H10.315V21.431h3.865V15.524C14.181,14.01,14.457,12.462,16.507,12.462ZM4.019,9.5V21.431H7.887l0-11.934ZM5.955,3.573A2.2,2.2,0,0,0,3.711,5.719a2.2,2.2,0,0,0,2.244,2.15,2.2,2.2,0,0,0,2.239-2.15A2.2,2.2,0,0,0,5.955,3.573Z" transform="translate(0.001)" fill="#f6770d"/>
</svg>
