<svg id="Icon_-_Twitter" data-name="Icon - Twitter" xmlns="http://www.w3.org/2000/svg" width="28.217" height="25" viewBox="0 0 28.217 25">
  <path id="Vector" d="M10939.315,2053.354c.02.273.02.547.02.82,0,8.34-5.818,17.95-16.453,17.95a15.383,15.383,0,0,1-8.883-2.832,11.13,11.13,0,0,0,8.576-2.617,5.878,5.878,0,0,1-5.4-4.375,6.651,6.651,0,0,0,1.09.1,5.633,5.633,0,0,0,1.521-.214,6.2,6.2,0,0,1-4.635-6.192v-.078a5.447,5.447,0,0,0,2.613.8,6.468,6.468,0,0,1-2.578-5.253,6.7,6.7,0,0,1,.787-3.184,16.031,16.031,0,0,0,11.924,6.6,7.711,7.711,0,0,1-.143-1.445,6.06,6.06,0,0,1,5.783-6.308,5.554,5.554,0,0,1,4.223,1.992,10.828,10.828,0,0,0,3.672-1.523,6.225,6.225,0,0,1-2.543,3.476,10.816,10.816,0,0,0,3.33-.976,13.077,13.077,0,0,1-2.9,3.262Z" transform="translate(-10913.999 -2047.123)" fill="#f6770d"/>
</svg>
