<svg id="Performance_Engineering_Icon" data-name="Performance Engineering Icon" xmlns="http://www.w3.org/2000/svg" width="76.112" height="76.112" viewBox="0 0 76.112 76.112">
  <path id="Path_20584" data-name="Path 20584" d="M-926.185,913.871q-15.462,0-30.923,0a6.756,6.756,0,0,1-7.133-7.133q0-30.923,0-61.845a6.752,6.752,0,0,1,7.132-7.132q30.922,0,61.845,0a6.751,6.751,0,0,1,7.133,7.131q0,30.923,0,61.845a6.758,6.758,0,0,1-7.133,7.134Q-910.723,913.873-926.185,913.871Zm-35.344-62.494v.931q0,27.1,0,54.2c0,3.031,1.632,4.655,4.678,4.655h61.332c3.042,0,4.676-1.627,4.677-4.656q0-27.1,0-54.2v-.93Zm.109-2.8h70.578c0-1.161,0-2.263,0-3.364,0-3.146-1.6-4.738-4.764-4.738h-61.16c-.255,0-.51-.006-.764.006a3.875,3.875,0,0,0-3.849,3.3A38.268,38.268,0,0,0-961.42,848.573Z" transform="translate(964.241 -837.76)" fill="#112a85" fill-rule="evenodd"/>
  <path id="Path_20585" data-name="Path 20585" d="M-907.689,964.115h-30.668c-1.516,0-1.885-.374-1.885-1.91q0-25.274,0-50.547c0-1.536.367-1.906,1.887-1.906h61.505c1.458,0,1.844.391,1.844,1.866q0,25.316,0,50.632c0,1.471-.389,1.865-1.846,1.865Zm29.934-51.591h-59.707v48.833h59.707Z" transform="translate(945.68 -893.44)" fill="#112a85" fill-rule="evenodd"/>
  <path id="Path_20586" data-name="Path 20586" d="M-928.636,862.07v2.579h-5.353V862.07Z" transform="translate(940.843 -856.562)" fill="#112a85" fill-rule="evenodd"/>
  <path id="Path_20587" data-name="Path 20587" d="M-898.081,864.564v-2.606h5.323v2.606Z" transform="translate(913.071 -856.475)" fill="#112a85" fill-rule="evenodd"/>
  <path id="Path_20588" data-name="Path 20588" d="M-856.71,862.037v2.6h-5.353v-2.6Z" transform="translate(885.213 -856.536)" fill="#112a85" fill-rule="evenodd"/>
  <path id="Path_20589" data-name="Path 20589" d="M-852.106,1046.237h-2.755a22.509,22.509,0,0,0-1.362-7.137,19.569,19.569,0,0,0-3.683-6.122l-1.84,1.921a17.778,17.778,0,0,1,4.148,11.31h-2.7a14.978,14.978,0,0,0-5.95-11.821,14.418,14.418,0,0,0-9.669-3.038,15.047,15.047,0,0,0-14.362,14.872h-2.668a17.677,17.677,0,0,1,4.19-11.38l-1.869-1.912a20.557,20.557,0,0,0-5.052,13.345h-2.742c.231-7.792,3.241-14.16,9.541-18.632,7.882-5.6,16.381-6.159,24.854-1.5C-856.27,1030.414-852.522,1037.343-852.106,1046.237Zm-9.8-15.366a20.412,20.412,0,0,0-11.972-4.963v2.733a18.08,18.08,0,0,1,10.02,4.072Zm-26.651-.074,1.807,1.976a18.111,18.111,0,0,1,10.117-4.205c0-.778,0-1.481,0-2.184a2.368,2.368,0,0,0-.08-.392A20.217,20.217,0,0,0-888.562,1030.8Z" transform="translate(913.335 -981.037)" fill="#f6770d" fill-rule="evenodd"/>
  <path id="Path_20590" data-name="Path 20590" d="M-799.555,948.62h-32.517v-2.611h32.517Z" transform="translate(862.017 -921.482)" fill="#112a85" fill-rule="evenodd"/>
  <path id="Path_20591" data-name="Path 20591" d="M-799.451,981.987V984.6h-32.505v-2.616Z" transform="translate(861.928 -949.309)" fill="#112a85" fill-rule="evenodd"/>
  <path id="Path_20592" data-name="Path 20592" d="M-898.878,956.607c-1.274,0-2.549.008-3.823,0-1.072-.008-1.551-.484-1.554-1.557q-.012-3.865,0-7.731c0-1.114.478-1.574,1.619-1.576q3.823-.008,7.646,0c1.123,0,1.6.475,1.6,1.6q.01,3.823,0,7.646c0,1.162-.473,1.616-1.663,1.621C-896.329,956.61-897.6,956.607-898.878,956.607Zm-2.626-2.77h5.337v-5.343H-901.5Z" transform="translate(917.85 -921.272)" fill="#112a85" fill-rule="evenodd"/>
  <path id="Path_20593" data-name="Path 20593" d="M-815.99,1071.822h2.712v2.085c0,1.387.019,2.774-.01,4.16a.8.8,0,0,0,.615.915,5.209,5.209,0,0,1,3.42,5h-2.6c-.521-1.818-1.447-2.691-2.823-2.667s-2.268.881-2.749,2.714H-820a5.08,5.08,0,0,1,3.237-4.962,1.073,1.073,0,0,0,.784-1.238C-816.013,1075.853-815.99,1073.878-815.99,1071.822Z" transform="translate(852.69 -1018.791)" fill="#f6770d" fill-rule="evenodd"/>
</svg>
