<svg id="Quality_Engineering_Icon" data-name="Quality Engineering Icon" xmlns="http://www.w3.org/2000/svg" width="88.378" height="88.327" viewBox="0 0 88.378 88.327">
  <g id="Group_9087" data-name="Group 9087">
    <path id="Path_20541" data-name="Path 20541" d="M-375.907,137.752l1.224,3.048h-14.548v3.069h1.007c5.205,0,10.41-.012,15.615.018a4.42,4.42,0,0,1,1.5.41c1.488.58,2.963,1.194,4.6,1.857v18.974h-50.155v-39.47h36.443c.149.943.3,1.9.467,2.946h-9.48v3.077h3.127c2.412,0,4.825-.019,7.236.021a1.793,1.793,0,0,1,1.019.472,13.542,13.542,0,0,1,1.453,1.5,5.374,5.374,0,0,1,.512,1.032h-13.344v3.046Zm-36.206,10.638h18.189V130.217h-18.189Zm-1.523,13.7h21.217v-2.936h-21.217Zm24.37-12.2h19.726v-2.919h-19.726Zm-18.276,6.1h15.123v-2.936h-15.123Zm22.813,4.632a3.123,3.123,0,0,0,3.046-3.02,3.126,3.126,0,0,0-3-3.07,3.114,3.114,0,0,0-3.092,3.065A3.128,3.128,0,0,0-384.728,160.623Zm12.149,0a3.125,3.125,0,0,0,3.087-2.98,3.129,3.129,0,0,0-2.957-3.11,3.113,3.113,0,0,0-3.133,3.024A3.128,3.128,0,0,0-372.58,160.623Zm-41.055-4.631h2.935v-2.938h-2.935Z" transform="translate(422.817 -104.243)" fill="#f1f1f2" fill-rule="evenodd"/>
    <path id="Path_20542" data-name="Path 20542" d="M-427.859,201.155h56.345v4.262c.449-.276.74-.442,1.018-.627,2.983-1.982,5.972-3.957,8.939-5.964a1.2,1.2,0,0,1,1.424-.061,3.7,3.7,0,0,1,2.376,4.423,16.242,16.242,0,0,0-.026,2.566,4.5,4.5,0,0,1-4.485,4.482q-30.557.014-61.115,0a4.494,4.494,0,0,1-4.473-4.491C-427.872,204.23-427.859,202.715-427.859,201.155Zm30.458,4.592a1.6,1.6,0,0,0-1.441-1.588,1.594,1.594,0,0,0-1.587,1.442,1.593,1.593,0,0,0,1.441,1.588A1.6,1.6,0,0,0-397.4,205.747Zm6.095-.118a1.589,1.589,0,0,0-1.559-1.471,1.585,1.585,0,0,0-1.469,1.559,1.586,1.586,0,0,0,1.558,1.471A1.589,1.589,0,0,0-391.307,205.63Zm4.548,1.559a1.588,1.588,0,0,0,1.547-1.483,1.586,1.586,0,0,0-1.482-1.547,1.585,1.585,0,0,0-1.546,1.483A1.587,1.587,0,0,0-386.759,207.189Z" transform="translate(427.864 -137.103)" fill="#f1f1f2" fill-rule="evenodd"/>
    <path id="Path_20543" data-name="Path 20543" d="M-416.761,112.432c0-2.6-.017-5.1.008-7.606a1.443,1.443,0,0,1,1.51-1.491c.19-.011.381,0,.571,0h38.593c0,1.2.013,2.321-.012,3.445a.846.846,0,0,1-.259.565,10.96,10.96,0,0,0-3.377,5.09Zm6.033-3.023v-2.969h-2.919v2.969Zm6.074,0v-2.969h-2.9v2.969Zm6.132-2.983h-2.953v2.936h2.953Z" transform="translate(422.862 -94.179)" fill="#f1f1f2" fill-rule="evenodd"/>
    <path id="Path_20544" data-name="Path 20544" d="M-315.753,103.336A12.157,12.157,0,0,1-303.625,115.6a12.168,12.168,0,0,1-12.29,12.1A12.174,12.174,0,0,1-328,115.391,12.167,12.167,0,0,1-315.753,103.336Zm-.05,4.568a7.685,7.685,0,0,0-7.624,7.632,7.69,7.69,0,0,0,7.561,7.6,7.688,7.688,0,0,0,7.672-7.586A7.683,7.683,0,0,0-315.8,107.9Z" transform="translate(382.85 -94.181)" fill="#f1f1f2" fill-rule="evenodd"/>
    <path id="Path_20545" data-name="Path 20545" d="M-304.441,164.071V184.21c-1.644-1.092-3.146-2.19-4.748-3.117a2.3,2.3,0,0,1-1.331-2.5c.118-1.187.026-2.4.026-3.648h-3.055c0,1.285-.08,2.608.025,3.915a2.011,2.011,0,0,1-1.153,2.118c-1.643.991-3.212,2.105-4.914,3.236V164.12a10.732,10.732,0,0,0,7.55,3.136A10.539,10.539,0,0,0-304.441,164.071Z" transform="translate(379.061 -121.557)" fill="#f1f1f2" fill-rule="evenodd"/>
    <path id="Path_20546" data-name="Path 20546" d="M-385.182,231.447c.644-1.935,1.258-3.822,1.919-5.693a.821.821,0,0,1,.645-.35q9.038-.029,18.076,0a.818.818,0,0,1,.643.354c.66,1.869,1.273,3.755,1.917,5.689Z" transform="translate(408.626 -149.196)" fill="#f1f1f2" fill-rule="evenodd"/>
    <path id="Path_20547" data-name="Path 20547" d="M-402.4,240.1l5.851-1.727-.556,1.97h31.51l-.584-1.967,5.861,1.719c0,.14,0,.279,0,.419a10.926,10.926,0,0,1-1.948.785,83.635,83.635,0,0,1-9.329,1.659c-4.481.363-9,.457-13.5.4a57.634,57.634,0,0,1-14.766-1.867c-.877-.243-1.713-.633-2.568-.954C-402.412,240.394-402.4,240.249-402.4,240.1Z" transform="translate(416.396 -155.049)" fill="#f1f1f2" fill-rule="evenodd"/>
    <path id="Path_20548" data-name="Path 20548" d="M-424.87,167.946h-2.986v-.9q0-15.469,0-30.941a4.245,4.245,0,0,1,2.985-4.279Z" transform="translate(427.861 -107.021)" fill="#f1f1f2" fill-rule="evenodd"/>
    <path id="Path_20549" data-name="Path 20549" d="M-327.217,97.9a15.936,15.936,0,0,0-6.214,6.216c-1.183-.484-2.328-.923-3.441-1.434a1,1,0,0,1-.433-.724,7.583,7.583,0,0,1,7.9-7.924,1.089,1.089,0,0,1,.774.5C-328.122,95.613-327.7,96.734-327.217,97.9Z" transform="translate(387.058 -89.978)" fill="#f1f1f2" fill-rule="evenodd"/>
    <path id="Path_20550" data-name="Path 20550" d="M-292.714,97.908c.488-1.189.913-2.312,1.422-3.4a1.094,1.094,0,0,1,.788-.481,7.555,7.555,0,0,1,7.88,7.853,1.172,1.172,0,0,1-.536.839c-1.05.5-2.144.917-3.315,1.4A15.966,15.966,0,0,0-292.714,97.908Z" transform="translate(366.947 -89.979)" fill="#f1f1f2" fill-rule="evenodd"/>
    <path id="Path_20551" data-name="Path 20551" d="M-341.661,114.645c1.241.517,2.387.975,3.506,1.49.121.055.174.458.119.664a14.94,14.94,0,0,0-.021,7.612.994.994,0,0,1-.42.831,19.192,19.192,0,0,1-2,.862c-1.379.576-1.379.577-2.373-.581a7.586,7.586,0,0,1,.5-10.34A7.932,7.932,0,0,1-341.661,114.645Z" transform="translate(390.355 -99.279)" fill="#f1f1f2" fill-rule="evenodd"/>
    <path id="Path_20552" data-name="Path 20552" d="M-292.716,144.843a15.885,15.885,0,0,0,6.22-6.22c1.19.485,2.361.932,3.5,1.454a1.025,1.025,0,0,1,.381.76,7.564,7.564,0,0,1-7.867,7.871,1.176,1.176,0,0,1-.829-.551C-291.817,147.107-292.231,146.013-292.716,144.843Z" transform="translate(366.948 -110.087)" fill="#f1f1f2" fill-rule="evenodd"/>
    <path id="Path_20553" data-name="Path 20553" d="M-333.423,138.62a15.883,15.883,0,0,0,6.216,6.212c-.486,1.187-.935,2.357-1.458,3.493a1.024,1.024,0,0,1-.755.389,7.573,7.573,0,0,1-7.871-7.862,1.174,1.174,0,0,1,.55-.829C-335.691,139.519-334.6,139.106-333.423,138.62Z" transform="translate(387.048 -110.085)" fill="#f1f1f2" fill-rule="evenodd"/>
    <path id="Path_20554" data-name="Path 20554" d="M-310.666,86.669a7.317,7.317,0,0,1,5.59,2.441,1.265,1.265,0,0,1,.194,1.054A20.964,20.964,0,0,1-306,92.882a.9.9,0,0,1-.754.4,15.2,15.2,0,0,0-7.707.01.91.91,0,0,1-.749-.417c-.375-.729-.575-1.553-.984-2.258-.5-.852-.2-1.373.448-1.941A7.707,7.707,0,0,1-310.666,86.669Z" transform="translate(377.643 -86.669)" fill="#f1f1f2" fill-rule="evenodd"/>
    <path id="Path_20555" data-name="Path 20555" d="M-272.438,120.929a7.249,7.249,0,0,1-2.438,5.325,1.271,1.271,0,0,1-1.052.2c-.9-.287-1.755-.721-2.647-1.044a.654.654,0,0,1-.486-.927,14,14,0,0,0,0-7.506.652.652,0,0,1,.489-.925,15.914,15.914,0,0,0,2.278-.943,1.226,1.226,0,0,1,1.722.336A7.8,7.8,0,0,1-272.438,120.929Z" transform="translate(360.816 -99.389)" fill="#f1f1f2" fill-rule="evenodd"/>
    <path id="Path_20556" data-name="Path 20556" d="M-310.471,158.9a7.344,7.344,0,0,1-5.546-2.408,1.374,1.374,0,0,1-.21-1.131c.264-.874.691-1.7,1-2.56a.7.7,0,0,1,1-.521,13.788,13.788,0,0,0,7.413.007.7.7,0,0,1,.991.519c.317.861.741,1.685,1,2.56a1.375,1.375,0,0,1-.215,1.13A7.288,7.288,0,0,1-310.471,158.9Z" transform="translate(377.564 -116.215)" fill="#f1f1f2" fill-rule="evenodd"/>
  </g>
</svg>
